# xmcd CD Database Entry
#
# Track frame offsets:
# 150
# 14735
# 37157
# 52669
# 77548
# 91971
# 106971
# 121048
# 138802
# 156173
# 172575
# 196922
# 213674
# 229322
# 243213
#
# Disc length: 3545 seconds
#
# Revision: 1
# Processed by: cddbd v1.4PL0 Copyright (c) Steve Scherf et al.
# Submitted via: tcd 2.0b
#
DISCID=b60dd70f
DTITLE=Various Artist - Pure Disco
DYEAR=1900
DGENRE=
TTITLE0=Ritchie Family - Best Dicso In Town
TTITLE1=Gloria Gaynor - I Will Survive
TTITLE2=Santa Esmaralda - Don't Let Me Be Misunderstood
TTITLE3=Shocking Blue - Venus 1990 Mix
TTITLE4=George McCrae - Rock Your Baby
TTITLE5=David Christie - Saddle Up
TTITLE6=Miquel Brown - So Many Men, So Little Time
TTITLE7=Anita Ward - Ring My Bell
TTITLE8=Evelyn Thomas - High Energy
TTITLE9=Jesse Green - Nice and Slow
TTITLE10=M.A.N. - Down Under
TTITLE11=Kelly Marie - Feels Like I'm In Love - PWL Mix
TTITLE12=Polly Brown - Up In A Puff Of Smoke
TTITLE13=Michael Zager Band - Let's All Chant
TTITLE14=Gloria Gaynor - Never Can Say Goodbye
EXTD=DMP International Pty Ltd\nSubmitted by Will Kemp
EXTT0=
EXTT1=
EXTT2=
EXTT3=
EXTT4=
EXTT5=
EXTT6=
EXTT7=
EXTT8=
EXTT9=
EXTT10=
EXTT11=
EXTT12=
EXTT13=
EXTT14=
PLAYORDER=
